<svg width="41" height="31" viewBox="0 0 41 31" fill="none" xmlns="http://www.w3.org/2000/svg">
<path id="Vector" d="M40.038 8.96875H35.2437L33.9112 5.6375C32.5419 2.21256 29.2739 0 25.5847 0H15.4148C11.7264 0 8.45756 2.21256 7.08742 5.6375L5.75492 8.96875H0.961447C0.336037 8.96875 -0.122811 9.55652 0.0293377 10.1627L0.509806 12.0846C0.61631 12.5122 1.00069 12.8125 1.44192 12.8125H3.04908C1.97363 13.7518 1.28096 15.1171 1.28096 16.6562V20.5C1.28096 21.7909 1.77424 22.956 2.56221 23.8577V28.1875C2.56221 29.6025 3.70973 30.75 5.12471 30.75H7.68721C9.10219 30.75 10.2497 29.6025 10.2497 28.1875V25.625H30.7497V28.1875C30.7497 29.6025 31.8972 30.75 33.3122 30.75H35.8747C37.2897 30.75 38.4372 29.6025 38.4372 28.1875V23.8577C39.2252 22.9568 39.7185 21.7917 39.7185 20.5V16.6562C39.7185 15.1171 39.0258 13.7518 37.9511 12.8125H39.5583C39.9995 12.8125 40.3839 12.5122 40.4904 12.0846L40.9709 10.1627C41.1222 9.55652 40.6634 8.96875 40.038 8.96875ZM11.8457 7.54096C12.4294 6.08193 13.8428 5.125 15.4148 5.125H25.5847C27.1566 5.125 28.57 6.08193 29.1538 7.54096L30.7497 11.5312H10.2497L11.8457 7.54096ZM7.68721 20.484C6.14971 20.484 5.12471 19.4622 5.12471 17.9295C5.12471 16.3968 6.14971 15.375 7.68721 15.375C9.22471 15.375 11.531 17.674 11.531 19.2067C11.531 20.7394 9.22471 20.484 7.68721 20.484ZM33.3122 20.484C31.7747 20.484 29.4685 20.7394 29.4685 19.2067C29.4685 17.674 31.7747 15.375 33.3122 15.375C34.8497 15.375 35.8747 16.3968 35.8747 17.9295C35.8747 19.4622 34.8497 20.484 33.3122 20.484Z" fill="black" fill-opacity="0.93"/>
</svg>
