<svg width="31" height="31" viewBox="0 0 31 31" fill="none" xmlns="http://www.w3.org/2000/svg">
<path id="Vector" d="M15.375 0C6.88155 0 0 6.88155 0 15.375C0 23.8684 6.88155 30.75 15.375 30.75C23.8684 30.75 30.75 23.8684 30.75 15.375C30.75 6.88155 23.8684 0 15.375 0ZM18.915 21.7048L13.4469 17.7308C13.2547 17.5883 13.1431 17.3651 13.1431 17.1295V6.69556C13.1431 6.28639 13.4779 5.95161 13.8871 5.95161H16.8629C17.2721 5.95161 17.6069 6.28639 17.6069 6.69556V15.2324L21.5436 18.0966C21.8784 18.3384 21.9466 18.8034 21.7048 19.1382L19.9565 21.5436C19.7147 21.8722 19.2497 21.9466 18.915 21.7048Z" fill="black"/>
</svg>
