<svg width="44" height="31" viewBox="0 0 44 31" fill="none" xmlns="http://www.w3.org/2000/svg">
<path id="Vector" d="M41.7321 0H2.19643C0.983588 0 0 0.983588 0 2.19643V28.5536C0 29.7664 0.983588 30.75 2.19643 30.75H41.7321C42.945 30.75 43.9286 29.7664 43.9286 28.5536V2.19643C43.9286 0.983588 42.945 0 41.7321 0ZM12.0804 20.3087V21.4152C12.0804 21.7186 11.8346 21.9643 11.5312 21.9643H10.433C10.1297 21.9643 9.88393 21.7186 9.88393 21.4152V20.2971C9.109 20.2572 8.35535 19.9868 7.73074 19.518C7.46305 19.3169 7.44932 18.9161 7.69162 18.6847L8.49812 17.9153C8.68825 17.7341 8.97104 17.7259 9.19343 17.8652C9.45906 18.0313 9.76038 18.1205 10.0734 18.1205H12.0028C12.4489 18.1205 12.8127 17.7142 12.8127 17.2152C12.8127 16.8068 12.5649 16.4471 12.2108 16.3414L9.12204 15.4148C7.84605 15.0318 6.95444 13.8073 6.95444 12.4366C6.95444 10.7536 8.262 9.3863 9.88324 9.34306V8.23661C9.88324 7.93323 10.129 7.6875 10.4323 7.6875H11.5306C11.8339 7.6875 12.0797 7.93323 12.0797 8.23661V9.35473C12.8546 9.39454 13.6082 9.66429 14.2329 10.1338C14.5005 10.3349 14.5143 10.7357 14.272 10.967L13.4655 11.7365C13.2754 11.9177 12.9926 11.9259 12.7702 11.7866C12.5045 11.6198 12.2032 11.5312 11.8902 11.5312H9.9608C9.51465 11.5312 9.15087 11.9376 9.15087 12.4366C9.15087 12.845 9.39865 13.2047 9.75283 13.3104L12.8416 14.237C14.1175 14.62 15.0092 15.8445 15.0092 17.2152C15.0092 18.8989 13.7016 20.2655 12.0804 20.3087ZM28.5536 19.2188C28.5536 19.5221 28.3078 19.7679 28.0045 19.7679H20.317C20.0136 19.7679 19.7679 19.5221 19.7679 19.2188V18.1205C19.7679 17.8172 20.0136 17.5714 20.317 17.5714H28.0045C28.3078 17.5714 28.5536 17.8172 28.5536 18.1205V19.2188ZM39.5357 19.2188C39.5357 19.5221 39.29 19.7679 38.9866 19.7679H33.4955C33.1922 19.7679 32.9464 19.5221 32.9464 19.2188V18.1205C32.9464 17.8172 33.1922 17.5714 33.4955 17.5714H38.9866C39.29 17.5714 39.5357 17.8172 39.5357 18.1205V19.2188ZM39.5357 12.6295C39.5357 12.9328 39.29 13.1786 38.9866 13.1786H20.317C20.0136 13.1786 19.7679 12.9328 19.7679 12.6295V11.5312C19.7679 11.2279 20.0136 10.9821 20.317 10.9821H38.9866C39.29 10.9821 39.5357 11.2279 39.5357 11.5312V12.6295Z" fill="black"/>
</svg>
